<svg width="16" height="15" xmlns="http://www.w3.org/2000/svg" version="1.1" xml:space="preserve">
 <g>
  <title>Layer 1</title>
  <g id="svg_1" stroke="null">
   <g id="svg_2" stroke="null">
    <path d="m6.44616,1.6808c0,-0.92668 0.75414,-1.6808 1.6808,-1.6808s1.6808,0.75414 1.6808,1.6808c0,0.92668 -0.75414,1.6808 -1.6808,1.6808s-1.6808,-0.75284 -1.6808,-1.6808zm0.97765,0c0,0.38818 0.31499,0.70317 0.70317,0.70317c0.38818,0 0.70317,-0.31499 0.70317,-0.70317c0,-0.38818 -0.31499,-0.70317 -0.70317,-0.70317c-0.38818,0 -0.70317,0.3163 -0.70317,0.70317z" fill="#E2A610" id="svg_3" stroke="null"/>
    <path d="m9.57251,0.82863c0,0 0.07449,0.29669 -0.26925,0.45876c-0.34374,0.16077 -0.57115,0.04182 -0.57115,0.04182c0.06143,0.10457 0.09802,0.2235 0.09802,0.3529c0,0.38818 -0.31499,0.70317 -0.70317,0.70317c-0.38818,0 -0.70317,-0.31499 -0.70317,-0.70317c0,-0.03921 0.00915,-0.1869 0.07189,-0.30976c-0.58292,0.27708 -1.026,0.04051 -1.026,0.04051c-0.01438,0.08757 -0.02352,0.17776 -0.02352,0.26925c0,0.92668 0.75414,1.6808 1.6808,1.6808s1.6808,-0.75414 1.6808,-1.68212c0,-0.31106 -0.08626,-0.60253 -0.23526,-0.85216l0.00001,0.00001l0.00002,0l-0.00002,-0.00001z" fill="#9E740B" id="svg_4" stroke="null"/>
   </g>
   <path d="m0.84432,12.00614c0.88484,-0.86916 1.4364,-1.16192 1.66121,-2.42188c0.22481,-1.25996 0.04444,-3.91449 1.03515,-5.6528c0.90446,-1.59194 2.56434,-2.25067 4.18373,-2.25067c0.03921,0 0.07842,0.00261 0.11763,0.00261c0.03921,-0.0013 0.07842,-0.00261 0.11763,-0.00261c1.61937,0 3.27928,0.65873 4.18373,2.24936c0.98941,1.73962 0.81035,4.39415 1.03515,5.6528c0.22481,1.25996 0.77636,1.55273 1.66121,2.42188c0.38164,0.37512 0.84302,0.97241 0.84433,1.35667c0.0013,0.38426 -0.19474,0.52411 -0.66134,0.72016c-1.32007,0.55548 -3.08453,1.09396 -7.1807,1.09396s-5.86061,-0.53849 -7.1807,-1.09396c-0.46661,-0.19606 -0.66265,-0.33459 -0.66134,-0.72016c0.0013,-0.38295 0.46268,-0.98025 0.84433,-1.35537l-0.00002,0.00001l-0.00002,0l0.00002,0z" fill="#FFCA28" id="svg_5" stroke="null"/>
   <path d="m14.33786,13.38895c0,-0.579 -2.90808,-1.04822 -6.49582,-1.04822s-6.49582,0.46921 -6.49582,1.04822s2.90808,1.27042 6.49582,1.27042s6.49582,-0.69141 6.49582,-1.27042z" fill="#4E342E" id="svg_6" stroke="null"/>
   <path d="m11.74214,5.0777c0.04836,0.18429 0.08888,0.36857 0.12155,0.54894c0.16598,0.92275 0.13593,1.86902 0.21043,2.80353c0.10064,1.2508 0.32282,1.90954 0.82864,2.49769c0.06666,0.07712 -0.0013,0.19606 -0.10195,0.18036c-0.67572,-0.10325 -1.21813,-0.20651 -1.83635,-0.61429c-0.92275,-0.60776 -1.15016,-1.75138 -1.1567,-2.7787c-0.01046,-1.5292 0.0183,-3.01003 -0.10325,-3.57205c-0.1686,-0.78289 -0.32545,-1.19983 -0.58161,-1.58018c-0.39079,-0.58031 1.12663,0.22481 1.36452,0.40387c0.66265,0.50058 1.04299,1.3057 1.25472,2.11082l-0.00001,0l0.00001,0l0,0.00001z" fill="#E2A610" id="svg_7" stroke="null"/>
   <path d="m3.51453,7.10748c-0.01568,-0.99071 -0.00784,-2.01541 0.38688,-2.92508c0.23657,-0.54372 0.63782,-1.03385 1.15016,-1.33837c0.40255,-0.23918 1.22074,-0.5032 1.51482,0.03921c0.05881,0.10848 0.08235,0.23526 0.08626,0.35942c0.01046,0.43262 -0.21435,0.83257 -0.43262,1.20636c-0.64567,1.10834 -0.90314,2.31994 -1.24427,3.54852c-0.13985,0.50712 -0.3176,1.01293 -0.62213,1.44163c-0.20912,0.29408 -1.37366,1.33969 -1.10704,0.39471c0.25617,-0.91359 0.28231,-1.77491 0.26794,-2.72641l0.00001,0.00001l-0.00001,0z" fill="#FFF59D" id="svg_8" stroke="null"/>
   <path d="m9.03011,13.18506c-0.0013,-0.22481 -0.12286,-0.3542 -0.40255,-0.45091c-0.58031,-0.19998 -1.30701,-0.16338 -1.73048,0.06404c-0.44439,0.23787 -0.13593,1.55664 0.94497,1.55664s1.18938,-0.99855 1.18807,-1.16977l-0.00001,0.00001l0,-0.00001z" fill="#E2A610" id="svg_9" stroke="null"/>
   <path d="m3.82299,11.22063c-1.14755,0.20128 -1.97881,0.63651 -2.33823,0.98941c-0.28493,0.27839 -0.28493,0.49796 0.21696,0.26925c0.37772,-0.17253 1.58802,-0.5228 2.64799,-0.62867c1.82065,-0.18298 2.94469,-0.1869 3.13158,-0.18298c0.43785,0.00915 0.47444,-0.32806 -0.4104,-0.44699c-0.88484,-0.11763 -2.10036,-0.19998 -3.24791,0l0,-0.00001l0.00001,0l0,-0.00001z" fill="#FFF59D" id="svg_10" stroke="null"/>
   <path d="m7.37935,14.09997c0.15161,0.10457 0.3529,0.15554 0.5228,0.08495c0.16991,-0.07058 0.27971,-0.28623 0.19606,-0.44961c-0.03268,-0.06404 -0.08888,-0.11241 -0.14508,-0.15684c-0.15554,-0.12155 -0.32806,-0.22088 -0.51104,-0.29408c-0.07189,-0.02875 -0.14769,-0.0549 -0.22611,-0.04967c-0.07712,0.00392 -0.15814,0.04444 -0.18821,0.11633c-0.12939,0.29408 0.12939,0.5973 0.35158,0.74891l-0.00001,0l0.00001,0.00001z" fill="#FFF59D" id="svg_11" stroke="null"/>
  </g>
 </g>

</svg>